<mxfile host="app.diagrams.net" modified="2023-03-01T19:59:45.470Z" agent="5.0 (Macintosh; Intel Mac OS X 10_15_7) AppleWebKit/537.36 (KHTML, like Gecko) Chrome/110.0.0.0 Safari/537.36" etag="z0g1C5o3SDFkyFi5t2Z7" version="20.8.20" type="github">
  <diagram name="Page-1" id="mp1MPozDENrgUkg7iG8A">
    <mxGraphModel dx="1434" dy="803" grid="1" gridSize="10" guides="1" tooltips="1" connect="1" arrows="1" fold="1" page="1" pageScale="1" pageWidth="850" pageHeight="1100" math="0" shadow="0">
      <root>
        <mxCell id="0" />
        <mxCell id="1" parent="0" />
        <mxCell id="pS8DvrTMIpiN3o9yEQgk-1" value=":b2b-web" style="shape=umlLifeline;perimeter=lifelinePerimeter;whiteSpace=wrap;html=1;container=0;dropTarget=0;collapsible=0;recursiveResize=0;outlineConnect=0;portConstraint=eastwest;newEdgeStyle={&quot;edgeStyle&quot;:&quot;elbowEdgeStyle&quot;,&quot;elbow&quot;:&quot;vertical&quot;,&quot;curved&quot;:0,&quot;rounded&quot;:0};" vertex="1" parent="1">
          <mxGeometry x="80" y="140" width="100" height="500" as="geometry" />
        </mxCell>
        <mxCell id="pS8DvrTMIpiN3o9yEQgk-2" value=":mercurio-bff" style="shape=umlLifeline;perimeter=lifelinePerimeter;whiteSpace=wrap;html=1;container=0;dropTarget=0;collapsible=0;recursiveResize=0;outlineConnect=0;portConstraint=eastwest;newEdgeStyle={&quot;edgeStyle&quot;:&quot;elbowEdgeStyle&quot;,&quot;elbow&quot;:&quot;vertical&quot;,&quot;curved&quot;:0,&quot;rounded&quot;:0};" vertex="1" parent="1">
          <mxGeometry x="370" y="140" width="100" height="500" as="geometry" />
        </mxCell>
        <mxCell id="pS8DvrTMIpiN3o9yEQgk-5" value="" style="html=1;points=[];perimeter=orthogonalPerimeter;outlineConnect=0;targetShapes=umlLifeline;portConstraint=eastwest;newEdgeStyle={&quot;edgeStyle&quot;:&quot;elbowEdgeStyle&quot;,&quot;elbow&quot;:&quot;vertical&quot;,&quot;curved&quot;:0,&quot;rounded&quot;:0};" vertex="1" parent="pS8DvrTMIpiN3o9yEQgk-2">
          <mxGeometry x="40" y="80" width="10" height="270" as="geometry" />
        </mxCell>
        <mxCell id="pS8DvrTMIpiN3o9yEQgk-25" value="" style="html=1;points=[];perimeter=orthogonalPerimeter;outlineConnect=0;targetShapes=umlLifeline;portConstraint=eastwest;newEdgeStyle={&quot;edgeStyle&quot;:&quot;elbowEdgeStyle&quot;,&quot;elbow&quot;:&quot;vertical&quot;,&quot;curved&quot;:0,&quot;rounded&quot;:0};" vertex="1" parent="pS8DvrTMIpiN3o9yEQgk-2">
          <mxGeometry x="40" y="370" width="10" height="80" as="geometry" />
        </mxCell>
        <mxCell id="pS8DvrTMIpiN3o9yEQgk-3" value=":mercurio-auth-api" style="shape=umlLifeline;perimeter=lifelinePerimeter;whiteSpace=wrap;html=1;container=0;dropTarget=0;collapsible=0;recursiveResize=0;outlineConnect=0;portConstraint=eastwest;newEdgeStyle={&quot;edgeStyle&quot;:&quot;elbowEdgeStyle&quot;,&quot;elbow&quot;:&quot;vertical&quot;,&quot;curved&quot;:0,&quot;rounded&quot;:0};" vertex="1" parent="1">
          <mxGeometry x="1200" y="130" width="100" height="510" as="geometry" />
        </mxCell>
        <mxCell id="pS8DvrTMIpiN3o9yEQgk-21" value="" style="html=1;points=[];perimeter=orthogonalPerimeter;outlineConnect=0;targetShapes=umlLifeline;portConstraint=eastwest;newEdgeStyle={&quot;edgeStyle&quot;:&quot;elbowEdgeStyle&quot;,&quot;elbow&quot;:&quot;vertical&quot;,&quot;curved&quot;:0,&quot;rounded&quot;:0};" vertex="1" parent="pS8DvrTMIpiN3o9yEQgk-3">
          <mxGeometry x="40" y="280" width="10" height="80" as="geometry" />
        </mxCell>
        <mxCell id="pS8DvrTMIpiN3o9yEQgk-4" value=":mercurio-documents-api" style="shape=umlLifeline;perimeter=lifelinePerimeter;whiteSpace=wrap;html=1;container=0;dropTarget=0;collapsible=0;recursiveResize=0;outlineConnect=0;portConstraint=eastwest;newEdgeStyle={&quot;edgeStyle&quot;:&quot;elbowEdgeStyle&quot;,&quot;elbow&quot;:&quot;vertical&quot;,&quot;curved&quot;:0,&quot;rounded&quot;:0};" vertex="1" parent="1">
          <mxGeometry x="980" y="130" width="100" height="510" as="geometry" />
        </mxCell>
        <mxCell id="pS8DvrTMIpiN3o9yEQgk-18" value="" style="html=1;points=[];perimeter=orthogonalPerimeter;outlineConnect=0;targetShapes=umlLifeline;portConstraint=eastwest;newEdgeStyle={&quot;edgeStyle&quot;:&quot;elbowEdgeStyle&quot;,&quot;elbow&quot;:&quot;vertical&quot;,&quot;curved&quot;:0,&quot;rounded&quot;:0};" vertex="1" parent="pS8DvrTMIpiN3o9yEQgk-4">
          <mxGeometry x="40" y="190" width="10" height="80" as="geometry" />
        </mxCell>
        <mxCell id="pS8DvrTMIpiN3o9yEQgk-6" value="downloadFile + query" style="html=1;verticalAlign=bottom;endArrow=block;edgeStyle=elbowEdgeStyle;elbow=vertical;curved=0;rounded=0;" edge="1" target="pS8DvrTMIpiN3o9yEQgk-2" parent="1">
          <mxGeometry relative="1" as="geometry">
            <mxPoint x="130" y="220" as="sourcePoint" />
          </mxGeometry>
        </mxCell>
        <mxCell id="pS8DvrTMIpiN3o9yEQgk-7" value="" style="html=1;verticalAlign=bottom;endArrow=open;dashed=1;endSize=8;edgeStyle=elbowEdgeStyle;elbow=vertical;curved=0;rounded=0;" edge="1" parent="1">
          <mxGeometry relative="1" as="geometry">
            <mxPoint x="130" y="485" as="targetPoint" />
            <mxPoint x="419.5" y="485" as="sourcePoint" />
            <Array as="points">
              <mxPoint x="170" y="485" />
              <mxPoint x="220" y="485" />
              <mxPoint x="340" y="485" />
              <mxPoint x="420" y="390" />
            </Array>
          </mxGeometry>
        </mxCell>
        <mxCell id="pS8DvrTMIpiN3o9yEQgk-24" value="Return path with the blob cyphered path" style="edgeLabel;html=1;align=center;verticalAlign=middle;resizable=0;points=[];" vertex="1" connectable="0" parent="pS8DvrTMIpiN3o9yEQgk-7">
          <mxGeometry x="0.1779" relative="1" as="geometry">
            <mxPoint x="1" as="offset" />
          </mxGeometry>
        </mxCell>
        <mxCell id="pS8DvrTMIpiN3o9yEQgk-9" value="query" style="html=1;verticalAlign=bottom;endArrow=block;edgeStyle=elbowEdgeStyle;elbow=vertical;curved=0;rounded=0;" edge="1" target="pS8DvrTMIpiN3o9yEQgk-11" parent="1">
          <mxGeometry relative="1" as="geometry">
            <mxPoint x="420" y="220" as="sourcePoint" />
            <mxPoint x="730" y="230" as="targetPoint" />
          </mxGeometry>
        </mxCell>
        <mxCell id="pS8DvrTMIpiN3o9yEQgk-10" value="query response" style="html=1;verticalAlign=bottom;endArrow=open;dashed=1;endSize=8;edgeStyle=elbowEdgeStyle;elbow=vertical;curved=0;rounded=0;startArrow=none;" edge="1" source="pS8DvrTMIpiN3o9yEQgk-11" parent="1">
          <mxGeometry relative="1" as="geometry">
            <mxPoint x="420" y="295" as="targetPoint" />
            <mxPoint x="700" y="295" as="sourcePoint" />
          </mxGeometry>
        </mxCell>
        <mxCell id="pS8DvrTMIpiN3o9yEQgk-11" value=":mercurio-inventory-api" style="shape=umlLifeline;perimeter=lifelinePerimeter;whiteSpace=wrap;html=1;container=0;dropTarget=0;collapsible=0;recursiveResize=0;outlineConnect=0;portConstraint=eastwest;newEdgeStyle={&quot;edgeStyle&quot;:&quot;elbowEdgeStyle&quot;,&quot;elbow&quot;:&quot;vertical&quot;,&quot;curved&quot;:0,&quot;rounded&quot;:0};" vertex="1" parent="1">
          <mxGeometry x="690" y="140" width="100" height="500" as="geometry" />
        </mxCell>
        <mxCell id="pS8DvrTMIpiN3o9yEQgk-8" value="" style="html=1;points=[];perimeter=orthogonalPerimeter;outlineConnect=0;targetShapes=umlLifeline;portConstraint=eastwest;newEdgeStyle={&quot;edgeStyle&quot;:&quot;elbowEdgeStyle&quot;,&quot;elbow&quot;:&quot;vertical&quot;,&quot;curved&quot;:0,&quot;rounded&quot;:0};" vertex="1" parent="pS8DvrTMIpiN3o9yEQgk-11">
          <mxGeometry x="40" y="80" width="10" height="80" as="geometry" />
        </mxCell>
        <mxCell id="pS8DvrTMIpiN3o9yEQgk-19" value="send json with template and data" style="html=1;verticalAlign=bottom;endArrow=block;edgeStyle=elbowEdgeStyle;elbow=vertical;curved=0;rounded=0;" edge="1" target="pS8DvrTMIpiN3o9yEQgk-4" parent="1">
          <mxGeometry relative="1" as="geometry">
            <mxPoint x="420" y="320" as="sourcePoint" />
          </mxGeometry>
        </mxCell>
        <mxCell id="pS8DvrTMIpiN3o9yEQgk-20" value="return blobId" style="html=1;verticalAlign=bottom;endArrow=open;dashed=1;endSize=8;edgeStyle=elbowEdgeStyle;elbow=vertical;curved=0;rounded=0;" edge="1" parent="1">
          <mxGeometry relative="1" as="geometry">
            <mxPoint x="420" y="391" as="targetPoint" />
            <mxPoint x="1020" y="391" as="sourcePoint" />
          </mxGeometry>
        </mxCell>
        <mxCell id="pS8DvrTMIpiN3o9yEQgk-22" value="Get Cipher Path" style="html=1;verticalAlign=bottom;endArrow=block;edgeStyle=elbowEdgeStyle;elbow=vertical;curved=0;rounded=0;" edge="1" target="pS8DvrTMIpiN3o9yEQgk-3" parent="1">
          <mxGeometry relative="1" as="geometry">
            <mxPoint x="420" y="410" as="sourcePoint" />
          </mxGeometry>
        </mxCell>
        <mxCell id="pS8DvrTMIpiN3o9yEQgk-23" value="return cyphered path" style="html=1;verticalAlign=bottom;endArrow=open;dashed=1;endSize=8;edgeStyle=elbowEdgeStyle;elbow=vertical;curved=0;rounded=0;" edge="1" source="pS8DvrTMIpiN3o9yEQgk-21" parent="1">
          <mxGeometry relative="1" as="geometry">
            <mxPoint x="420" y="485" as="targetPoint" />
          </mxGeometry>
        </mxCell>
        <mxCell id="pS8DvrTMIpiN3o9yEQgk-26" value="Get the file" style="html=1;verticalAlign=bottom;endArrow=block;edgeStyle=elbowEdgeStyle;elbow=vertical;curved=0;rounded=0;" edge="1" target="pS8DvrTMIpiN3o9yEQgk-25" parent="1">
          <mxGeometry relative="1" as="geometry">
            <mxPoint x="130" y="510" as="sourcePoint" />
          </mxGeometry>
        </mxCell>
        <mxCell id="pS8DvrTMIpiN3o9yEQgk-27" value="return" style="html=1;verticalAlign=bottom;endArrow=open;dashed=1;endSize=8;edgeStyle=elbowEdgeStyle;elbow=vertical;curved=0;rounded=0;" edge="1" source="pS8DvrTMIpiN3o9yEQgk-25" parent="1">
          <mxGeometry relative="1" as="geometry">
            <mxPoint x="130" y="585" as="targetPoint" />
          </mxGeometry>
        </mxCell>
      </root>
    </mxGraphModel>
  </diagram>
</mxfile>
